<svg data-v-423bf9ae="" xmlns="http://www.w3.org/2000/svg" viewBox="0 0 387 90" class="iconLeft"><!----><!----><!----><g data-v-423bf9ae="" id="333df427-4ba7-485f-9bef-956eaa0a0b49" fill="black" transform="matrix(6.1224488604322,0,0,6.1224488604322,110.99746995983094,10.714287480008146)"><path d="M0.98 0.70L2.79 0.70Q3.25 0.70 3.58 1.04Q3.91 1.37 3.91 1.83L3.91 1.83L3.91 9.39Q3.91 9.84 3.58 10.17Q3.25 10.50 2.79 10.50L2.79 10.50L0.94 10.50L0 10.50L0 0.70L0.98 0.70ZM2.93 9.39L2.93 1.83Q2.93 1.69 2.79 1.69L2.79 1.69L0.98 1.69L0.98 9.52L2.79 9.52Q2.93 9.52 2.93 9.39L2.93 9.39ZM8.34 1.68L5.80 1.68L5.80 4.62L7.84 4.62L7.84 5.60L5.80 5.60L5.80 9.52L8.34 9.52L8.34 10.50L4.82 10.50L4.82 4.62L5.80 4.62L4.82 1.68L4.82 0.70L8.34 0.70L8.34 1.68ZM12.74 0.70L13.73 0.70L12.17 10.50L10.82 10.50L9.25 0.70L10.25 0.70L11.49 8.54L12.74 0.70ZM18.34 2.86L17.36 2.86L17.36 1.81Q17.36 1.67 17.22 1.67L17.22 1.67L15.69 1.67Q15.55 1.67 15.55 1.81L15.55 1.81L15.55 4.47Q15.55 4.56 15.64 4.59L15.64 4.59L17.22 4.59Q17.70 4.59 18.02 4.92Q18.34 5.25 18.34 5.71L18.34 5.71L18.34 9.39Q18.34 9.81 18.07 10.12Q17.81 10.43 17.40 10.50L17.40 10.50L15.51 10.50Q15.11 10.43 14.84 10.12Q14.57 9.81 14.57 9.39L14.57 9.39L14.57 8.34L15.55 8.34L15.55 9.39Q15.55 9.53 15.69 9.53L15.69 9.53L17.22 9.53Q17.36 9.53 17.36 9.39L17.36 9.39L17.36 5.71Q17.36 5.61 17.28 5.59L17.28 5.59L15.69 5.59Q15.23 5.59 14.90 5.26Q14.57 4.93 14.57 4.47L14.57 4.47L14.57 1.81Q14.57 1.39 14.84 1.08Q15.11 0.77 15.51 0.70L15.51 0.70L17.40 0.70Q17.81 0.77 18.07 1.08Q18.34 1.39 18.34 1.81L18.34 1.81L18.34 2.86ZM22.18 8.34L23.16 8.34L23.16 9.39Q23.16 9.81 22.90 10.12Q22.64 10.43 22.23 10.50L22.23 10.50L20.19 10.50Q19.78 10.43 19.52 10.12Q19.25 9.81 19.25 9.39L19.25 9.39L19.25 1.81Q19.25 1.39 19.52 1.08Q19.78 0.77 20.19 0.70L20.19 0.70L22.23 0.70Q22.64 0.77 22.90 1.08Q23.16 1.39 23.16 1.81L23.16 1.81L23.16 2.86L22.18 2.86L22.18 1.81Q22.18 1.67 22.05 1.67L22.05 1.67L20.37 1.67Q20.23 1.67 20.23 1.81L20.23 1.81L20.23 9.39Q20.23 9.53 20.37 9.53L20.37 9.53L22.05 9.53Q22.18 9.53 22.18 9.39L22.18 9.39L22.18 8.34ZM24.07 10.50L24.07 4.62L25.05 4.62L25.05 10.50L24.07 10.50ZM24.07 0.70L26.89 0.70Q27.34 0.70 27.67 1.03Q28 1.36 28 1.82L28 1.82L28 4.48Q28 4.94 27.67 5.27Q27.34 5.60 26.89 5.60L26.89 5.60L26.54 5.60L28 10.50L26.95 10.50L25.26 4.62L26.89 4.62Q27.02 4.62 27.02 4.48L27.02 4.48L27.02 1.82Q27.02 1.68 26.89 1.68L26.89 1.68L25.05 1.68L25.05 4.62L24.07 1.68L24.07 0.70ZM29.85 0.70L31.91 0.70Q32.31 0.77 32.58 1.08Q32.84 1.39 32.84 1.81L32.84 1.81L32.84 9.39Q32.84 9.81 32.58 10.12Q32.31 10.43 31.91 10.50L31.91 10.50L29.85 10.50Q29.44 10.43 29.18 10.12Q28.91 9.81 28.91 9.39L28.91 9.39L28.91 1.81Q28.91 1.39 29.18 1.08Q29.44 0.77 29.85 0.70L29.85 0.70ZM31.86 9.39L31.86 1.81Q31.86 1.67 31.74 1.67L31.74 1.67L30.03 1.67Q29.89 1.67 29.89 1.81L29.89 1.81L29.89 9.39Q29.89 9.53 30.03 9.53L30.03 9.53L31.74 9.53Q31.86 9.53 31.86 9.39L31.86 9.39ZM40.38 0.70L40.38 0.70L39.16 10.50L37.81 10.50L37.07 6.22L36.33 10.50L34.99 10.50L33.75 0.70L34.75 0.70L35.66 8.54L36.69 3.12L37.56 3.12L38.49 8.54L39.38 0.70L40.38 0.70ZM41.16 0.70L43.95 0.70Q44.41 0.70 44.74 1.04Q45.07 1.37 45.07 1.83L45.07 1.83L45.07 9.39Q45.07 9.84 44.74 10.17Q44.41 10.50 43.95 10.50L43.95 10.50L41.16 10.50L41.16 4.62L42.14 4.62L41.16 1.68L41.16 0.70ZM44.09 9.39L44.09 1.83Q44.09 1.69 43.95 1.69L43.95 1.69L42.14 1.69L42.14 9.52L43.95 9.52Q44.09 9.52 44.09 9.39L44.09 9.39Z"></path></g><!----><g data-v-423bf9ae="" id="1fbb57ea-5e5e-48c8-954c-d6cde0626ef1" transform="matrix(1.0178231739657018,0,0,1.0178231739657018,-4.594851551880268,-5.100576172932129)" stroke="none" fill="black"><circle cx="35.148" cy="24.359" r="2.219"></circle><circle cx="35.148" cy="74.709" r="2.219"></circle><circle cx="26.119" cy="64.762" r="1.913"></circle><circle cx="74.02" cy="18.391" r="1.913"></circle><circle cx="65.908" cy="80.83" r="1.913"></circle><circle cx="38.209" cy="84.35" r="1.913"></circle><circle cx="19.538" cy="35.991" r="1.913"></circle><circle cx="22.445" cy="54.049" r="1.913"></circle><circle cx="78.917" cy="47.315" r="1.913"></circle><circle cx="54.89" cy="78.381" r="1.913"></circle><circle cx="51.676" cy="21.758" r="1.913"></circle><circle cx="17.089" cy="51.753" r="2.219"></circle><circle cx="75.703" cy="64.455" r="2.219"></circle><circle cx="29.103" cy="23.211" r="1.683"></circle><circle cx="78.075" cy="42.8" r="1.377"></circle><circle cx="80.217" cy="74.326" r="1.377"></circle><circle cx="34.612" cy="80.142" r="1.377"></circle><circle cx="21.298" cy="63.308" r="1.377"></circle><circle cx="49.457" cy="16.325" r="1.377"></circle><circle cx="71.801" cy="23.211" r="1.684"></circle><circle cx="21.91" cy="49.228" r="1.683"></circle><circle cx="42.417" cy="78.917" r="3.52"></circle><circle cx="65.22" cy="24.283" r="3.52"></circle><circle cx="24.359" cy="68.664" r="1.224"></circle><circle cx="62.006" cy="82.284" r="1.225"></circle><circle cx="84.809" cy="63.919" r="1.224"></circle><circle cx="85.268" cy="31.628" r="1.224"></circle><circle cx="65.373" cy="18.467" r="1.224"></circle><circle cx="52.824" cy="17.549" r="1.224"></circle><circle cx="28.338" cy="30.557" r="1.224"></circle><circle cx="33.846" cy="83.814" r="1.224"></circle><circle cx="6.311" cy="32.547" r=".918"></circle><circle cx="94.144" cy="56.88" r=".653"></circle><circle cx="19.921" cy="6.296" r=".653"></circle><circle cx="19.156" cy="91.313" r=".653"></circle><circle cx="56.037" cy="81.825" r=".652"></circle><circle cx="82.36" cy="53.166" r=".653"></circle><circle cx="56.803" cy="12.305" r=".653"></circle><circle cx="15.33" cy="56.38" r=".653"></circle><circle cx="30.94" cy="74.744" r=".653"></circle><circle cx="68.587" cy="91.926" r=".652"></circle><circle cx="52.211" cy="14.03" r=".918"></circle><circle cx="89.553" cy="69.888" r=".918"></circle><circle cx="24.818" cy="71.878" r=".918"></circle><circle cx="21.145" cy="31.628" r=".918"></circle><circle cx="56.037" cy="17.702" r=".918"></circle><circle cx="78.075" cy="52.136" r=".918"></circle><circle cx="25.889" cy="77.233" r=".918"></circle><circle cx="72.336" cy="30.021" r="2.984"></circle><circle cx="33.77" cy="14.871" r="1.607"></circle><circle cx="15.712" cy="34.459" r="1.071"></circle><circle cx="66.368" cy="87.411" r="1.071"></circle><circle cx="31.399" cy="27.803" r="1.607"></circle><circle cx="80.677" cy="63.919" r="1.607"></circle><circle cx="11.657" cy="55.196" r="1.607"></circle><circle cx="84.503" cy="38.056" r="1.147"></circle><circle cx="74.555" cy="34.842" r="1.148"></circle><circle cx="83.125" cy="67.286" r="1.147"></circle><circle cx="46.09" cy="89.323" r="1.148"></circle><circle cx="18.696" cy="56.114" r="1.147"></circle><circle cx="28.644" cy="18.62" r="1.148"></circle><circle cx="41.652" cy="12.346" r="1.147"></circle><circle cx="76.544" cy="38.668" r="1.607"></circle><circle cx="46.702" cy="21.987" r="1.607"></circle><circle cx="16.401" cy="74.785" r="1.071"></circle><circle cx="25.047" cy="34.613" r="2.525"></circle><circle cx="32.776" cy="19.539" r="1.836"></circle><circle cx="52.211" cy="82.743" r="1.836"></circle><circle cx="15.329" cy="44.178" r="1.837"></circle><circle cx="80.064" cy="35.761" r="1.837"></circle><circle cx="61.011" cy="77.311" r="2.525"></circle><circle cx="57.797" cy="22.216" r="2.526"></circle><circle cx="29.333" cy="70.117" r="2.984"></circle><circle cx="79.376" cy="57.874" r="2.984"></circle><circle cx="68.586" cy="74.633" r="3.52"></circle><circle cx="21.451" cy="42.342" r="3.52"></circle><circle cx="62.924" cy="13.417" r="1.53"></circle><circle cx="49.151" cy="78.764" r="1.53"></circle><circle cx="14.105" cy="21.069" r="1.531"></circle><circle cx="38.132" cy="92.537" r="1.53"></circle><circle cx="79.682" cy="40.045" r=".842"></circle><circle cx="75.55" cy="25.507" r=".842"></circle><circle cx="79.299" cy="68.052" r="1.684"></circle><circle cx="83.048" cy="70.348" r=".842"></circle><circle cx="88.94" cy="49.84" r=".842"></circle><circle cx="83.431" cy="60.4" r=".842"></circle><circle cx="27.19" cy="26.731" r=".842"></circle><circle cx="46.779" cy="7.989" r=".842"></circle><circle cx="31.705" cy="77.692" r=".841"></circle><circle cx="43.381" cy="85.977" r="2.219"></circle><circle cx="47.647" cy="82.57" r="1.378"></circle><circle cx="47.921" cy="86.361" r=".842"></circle><circle cx="68.739" cy="88.252" r=".842"></circle><circle cx="18.237" cy="47.238" r=".841"></circle><circle cx="79.452" cy="12.958" r="1.683"></circle><circle cx="69.199" cy="18.927" r="1.607"></circle><circle cx="75.779" cy="10.969" r=".842"></circle><circle cx="50.528" cy="50.008" r="22.726"></circle></g><!----></svg>